<svg xmlns="http://www.w3.org/2000/svg" style="display:none" aria-hidden="true">
<!-- ═══════════════════════════════════════════════════════════════════════
     GULFLEDGER ICON SYSTEM · gl-icons.svg
     ─────────────────────────────────────────────────────────────────────
     Usage:  <svg class="gl-i"><use href="/gl-icons.svg#i-invoice"/><symbol id="i-phone" viewBox="0 0 24 24" fill="none" stroke="currentColor" stroke-width="1.75" stroke-linecap="round" stroke-linejoin="round">
  <path d="M5 4h4l1.5 4.5L8 10a12 12 0 0 0 6 6l1.5-2.5L20 15v4a2 2 0 0 1-2 2A16 16 0 0 1 3 6a2 2 0 0 1 2-2z"/>
</symbol>
<symbol id="i-paperclip" viewBox="0 0 24 24" fill="none" stroke="currentColor" stroke-width="1.75" stroke-linecap="round" stroke-linejoin="round">
  <path d="M20 11.5 12.5 19a5 5 0 0 1-7-7l8-8a3.4 3.4 0 0 1 4.8 4.8L10.6 16.5a1.8 1.8 0 0 1-2.6-2.6l7-7"/>
</symbol>
<symbol id="i-bank" viewBox="0 0 24 24" fill="none" stroke="currentColor" stroke-width="1.75" stroke-linecap="round" stroke-linejoin="round">
  <path d="M3 9.5 12 4l9 5.5"/><path d="M5 10v8M9.5 10v8M14.5 10v8M19 10v8"/><path d="M3 18h18M3 21h18"/>
</symbol>
<symbol id="i-mail" viewBox="0 0 24 24" fill="none" stroke="currentColor" stroke-width="1.75" stroke-linecap="round" stroke-linejoin="round">
  <rect x="3" y="5" width="18" height="14" rx="2"/><path d="m3 7 9 6 9-6"/>
</symbol>
<symbol id="i-swap" viewBox="0 0 24 24" fill="none" stroke="currentColor" stroke-width="1.75" stroke-linecap="round" stroke-linejoin="round">
  <path d="M4 8h13m0 0-3.5-3.5M17 8l-3.5 3.5"/><path d="M20 16H7m0 0 3.5-3.5M7 16l3.5 3.5"/>
</symbol>
</svg>
     All icons: 24×24 viewBox · stroke currentColor · stroke-width 1.75 ·
     round caps/joins · fill none. Color and size are controlled by CSS
     (.gl-i, .gl-i-sm, .gl-i-lg in gl-design-system.v2.css).
     Cached once by the browser like the design-system CSS.
     ═══════════════════════════════════════════════════════════════════ -->

<!-- ── Documents & money ─────────────────────────────────────────────── -->
<symbol id="i-invoice" viewBox="0 0 24 24" fill="none" stroke="currentColor" stroke-width="1.75" stroke-linecap="round" stroke-linejoin="round">
  <path d="M6 3h12v18l-2.4-1.6L13.2 21l-2.4-1.6L8.4 21 6 19.4V3z"/>
  <path d="M9.5 8h5M9.5 12h5"/>
</symbol>
<symbol id="i-document" viewBox="0 0 24 24" fill="none" stroke="currentColor" stroke-width="1.75" stroke-linecap="round" stroke-linejoin="round">
  <path d="M7 3h7l4 4v14H7V3z"/><path d="M14 3v4h4"/><path d="M10 12h5M10 16h5"/>
</symbol>
<symbol id="i-clipboard" viewBox="0 0 24 24" fill="none" stroke="currentColor" stroke-width="1.75" stroke-linecap="round" stroke-linejoin="round">
  <rect x="6" y="5" width="12" height="16" rx="2"/><path d="M9.5 5a2.5 2.5 0 0 1 5 0"/><path d="M9.5 11h5M9.5 15h5"/>
</symbol>
<symbol id="i-ledger" viewBox="0 0 24 24" fill="none" stroke="currentColor" stroke-width="1.75" stroke-linecap="round" stroke-linejoin="round">
  <path d="M5 4h11a2 2 0 0 1 2 2v14H7a2 2 0 0 1-2-2V4z"/><path d="M5 4v14"/><path d="M11 9h4M11 13h4"/>
</symbol>
<symbol id="i-cash" viewBox="0 0 24 24" fill="none" stroke="currentColor" stroke-width="1.75" stroke-linecap="round" stroke-linejoin="round">
  <rect x="3" y="7" width="18" height="11" rx="2"/><circle cx="12" cy="12.5" r="2.6"/><path d="M6.5 10v.01M17.5 15v.01"/>
</symbol>
<symbol id="i-cash-out" viewBox="0 0 24 24" fill="none" stroke="currentColor" stroke-width="1.75" stroke-linecap="round" stroke-linejoin="round">
  <rect x="3" y="9" width="14" height="9" rx="2"/><circle cx="10" cy="13.5" r="2.2"/><path d="M17 7l3-3m0 0h-3.4M20 4v3.4"/>
</symbol>
<symbol id="i-receipt-in" viewBox="0 0 24 24" fill="none" stroke="currentColor" stroke-width="1.75" stroke-linecap="round" stroke-linejoin="round">
  <path d="M4 13v6a2 2 0 0 0 2 2h12a2 2 0 0 0 2-2v-6"/><path d="M12 3v10m0 0 3.5-3.5M12 13 8.5 9.5"/>
</symbol>
<symbol id="i-receipt-out" viewBox="0 0 24 24" fill="none" stroke="currentColor" stroke-width="1.75" stroke-linecap="round" stroke-linejoin="round">
  <path d="M4 13v6a2 2 0 0 0 2 2h12a2 2 0 0 0 2-2v-6"/><path d="M12 13V3m0 0L8.5 6.5M12 3l3.5 3.5"/>
</symbol>
<symbol id="i-scale" viewBox="0 0 24 24" fill="none" stroke="currentColor" stroke-width="1.75" stroke-linecap="round" stroke-linejoin="round">
  <path d="M12 3v18M7 21h10"/><path d="M5 7h14"/><path d="M5 7 3 12a2.6 2.6 0 0 0 4 0L5 7zM19 7l-2 5a2.6 2.6 0 0 0 4 0l-2-5z"/>
</symbol>

<!-- ── Entities ──────────────────────────────────────────────────────── -->
<symbol id="i-user" viewBox="0 0 24 24" fill="none" stroke="currentColor" stroke-width="1.75" stroke-linecap="round" stroke-linejoin="round">
  <circle cx="12" cy="8" r="3.4"/><path d="M5.5 20a6.5 6.5 0 0 1 13 0"/>
</symbol>
<symbol id="i-users" viewBox="0 0 24 24" fill="none" stroke="currentColor" stroke-width="1.75" stroke-linecap="round" stroke-linejoin="round">
  <circle cx="9.5" cy="8.5" r="3"/><path d="M3.8 19.5a5.7 5.7 0 0 1 11.4 0"/><path d="M16 5.7a3 3 0 0 1 0 5.6M17.8 14.3a5.7 5.7 0 0 1 2.9 5.2"/>
</symbol>
<symbol id="i-building" viewBox="0 0 24 24" fill="none" stroke="currentColor" stroke-width="1.75" stroke-linecap="round" stroke-linejoin="round">
  <path d="M5 21V5a2 2 0 0 1 2-2h10a2 2 0 0 1 2 2v16"/><path d="M3 21h18"/><path d="M9 7h.01M15 7h.01M9 11h.01M15 11h.01M9 15h.01M15 15h.01"/>
</symbol>
<symbol id="i-factory" viewBox="0 0 24 24" fill="none" stroke="currentColor" stroke-width="1.75" stroke-linecap="round" stroke-linejoin="round">
  <path d="M3 21V9l6 4V9l6 4V5a2 2 0 0 1 4 0v16H3z"/><path d="M3 21h18"/><path d="M7 17h.01M12 17h.01"/>
</symbol>
<symbol id="i-construction" viewBox="0 0 24 24" fill="none" stroke="currentColor" stroke-width="1.75" stroke-linecap="round" stroke-linejoin="round">
  <path d="M4 21V10l8-6 8 6v11"/><path d="M2 21h20"/><path d="M9 21v-6h6v6"/>
</symbol>
<symbol id="i-package" viewBox="0 0 24 24" fill="none" stroke="currentColor" stroke-width="1.75" stroke-linecap="round" stroke-linejoin="round">
  <path d="M12 3 4 7v10l8 4 8-4V7l-8-4z"/><path d="M4 7l8 4 8-4M12 11v10"/>
</symbol>

<!-- ── Analytics & status ───────────────────────────────────────────── -->
<symbol id="i-chart" viewBox="0 0 24 24" fill="none" stroke="currentColor" stroke-width="1.75" stroke-linecap="round" stroke-linejoin="round">
  <path d="M4 20V4"/><path d="M4 20h16"/><path d="M8 16v-5M12 16V8M16 16v-3"/>
</symbol>
<symbol id="i-trend-up" viewBox="0 0 24 24" fill="none" stroke="currentColor" stroke-width="1.75" stroke-linecap="round" stroke-linejoin="round">
  <path d="M3 17l6-6 4 4 8-8"/><path d="M21 7h-5m5 0v5"/>
</symbol>
<symbol id="i-check" viewBox="0 0 24 24" fill="none" stroke="currentColor" stroke-width="2" stroke-linecap="round" stroke-linejoin="round">
  <path d="M5 12.5 10 17.5 19 7"/>
</symbol>
<symbol id="i-check-circle" viewBox="0 0 24 24" fill="none" stroke="currentColor" stroke-width="1.75" stroke-linecap="round" stroke-linejoin="round">
  <circle cx="12" cy="12" r="9"/><path d="M8.5 12.5l2.5 2.5 4.5-5"/>
</symbol>
<symbol id="i-warning" viewBox="0 0 24 24" fill="none" stroke="currentColor" stroke-width="1.75" stroke-linecap="round" stroke-linejoin="round">
  <path d="M12 4 2.8 19.5h18.4L12 4z"/><path d="M12 10v4M12 17.2v.01"/>
</symbol>
<symbol id="i-info" viewBox="0 0 24 24" fill="none" stroke="currentColor" stroke-width="1.75" stroke-linecap="round" stroke-linejoin="round">
  <circle cx="12" cy="12" r="9"/><path d="M12 11v5M12 8v.01"/>
</symbol>
<symbol id="i-bolt" viewBox="0 0 24 24" fill="none" stroke="currentColor" stroke-width="1.75" stroke-linecap="round" stroke-linejoin="round">
  <path d="M13 3 5 13.5h5.5L11 21l8-10.5h-5.5L13 3z"/>
</symbol>
<symbol id="i-bulb" viewBox="0 0 24 24" fill="none" stroke="currentColor" stroke-width="1.75" stroke-linecap="round" stroke-linejoin="round">
  <path d="M9.5 18h5M10 21h4"/><path d="M12 3a6 6 0 0 0-3.5 10.9c.8.6 1.3 1.3 1.5 2.1h4c.2-.8.7-1.5 1.5-2.1A6 6 0 0 0 12 3z"/>
</symbol>

<!-- ── Actions ──────────────────────────────────────────────────────── -->
<symbol id="i-plus" viewBox="0 0 24 24" fill="none" stroke="currentColor" stroke-width="2" stroke-linecap="round" stroke-linejoin="round">
  <path d="M12 5v14M5 12h14"/>
</symbol>
<symbol id="i-close" viewBox="0 0 24 24" fill="none" stroke="currentColor" stroke-width="2" stroke-linecap="round" stroke-linejoin="round">
  <path d="M6 6l12 12M18 6 6 18"/>
</symbol>
<symbol id="i-search" viewBox="0 0 24 24" fill="none" stroke="currentColor" stroke-width="1.75" stroke-linecap="round" stroke-linejoin="round">
  <circle cx="11" cy="11" r="6.5"/><path d="M16 16l5 5"/>
</symbol>
<symbol id="i-edit" viewBox="0 0 24 24" fill="none" stroke="currentColor" stroke-width="1.75" stroke-linecap="round" stroke-linejoin="round">
  <path d="M4 20h4L19.5 8.5a2.1 2.1 0 0 0-4-4L4 16v4z"/><path d="M13.5 6.5l4 4"/>
</symbol>
<symbol id="i-trash" viewBox="0 0 24 24" fill="none" stroke="currentColor" stroke-width="1.75" stroke-linecap="round" stroke-linejoin="round">
  <path d="M4 7h16M9 7V4h6v3M6.5 7l1 13h9l1-13"/><path d="M10 11v5M14 11v5"/>
</symbol>
<symbol id="i-print" viewBox="0 0 24 24" fill="none" stroke="currentColor" stroke-width="1.75" stroke-linecap="round" stroke-linejoin="round">
  <path d="M7 8V3h10v5"/><rect x="4" y="8" width="16" height="8" rx="2"/><path d="M7 13h10v8H7v-8z"/>
</symbol>
<symbol id="i-refresh" viewBox="0 0 24 24" fill="none" stroke="currentColor" stroke-width="1.75" stroke-linecap="round" stroke-linejoin="round">
  <path d="M20 11a8 8 0 1 0-2.3 6.3"/><path d="M20 5v6h-6"/>
</symbol>
<symbol id="i-eye" viewBox="0 0 24 24" fill="none" stroke="currentColor" stroke-width="1.75" stroke-linecap="round" stroke-linejoin="round">
  <path d="M2.5 12S6 5.5 12 5.5 21.5 12 21.5 12 18 18.5 12 18.5 2.5 12 2.5 12z"/><circle cx="12" cy="12" r="2.8"/>
</symbol>
<symbol id="i-download" viewBox="0 0 24 24" fill="none" stroke="currentColor" stroke-width="1.75" stroke-linecap="round" stroke-linejoin="round">
  <path d="M12 3v12m0 0 4-4m-4 4-4-4"/><path d="M5 21h14"/>
</symbol>
<symbol id="i-logout" viewBox="0 0 24 24" fill="none" stroke="currentColor" stroke-width="1.75" stroke-linecap="round" stroke-linejoin="round">
  <path d="M14 4H7a2 2 0 0 0-2 2v12a2 2 0 0 0 2 2h7"/><path d="M10 12h11m0 0-3.5-3.5M21 12l-3.5 3.5"/>
</symbol>

<!-- ── System & navigation ──────────────────────────────────────────── -->
<symbol id="i-settings" viewBox="0 0 24 24" fill="none" stroke="currentColor" stroke-width="1.75" stroke-linecap="round" stroke-linejoin="round">
  <circle cx="12" cy="12" r="3"/><path d="M19 12a7 7 0 0 0-.2-1.6l2-1.5-2-3.4-2.3 1a7 7 0 0 0-2.8-1.7L13.5 2h-3l-.2 2.8A7 7 0 0 0 7.5 6.5l-2.3-1-2 3.4 2 1.5a7 7 0 0 0 0 3.2l-2 1.5 2 3.4 2.3-1a7 7 0 0 0 2.8 1.7l.2 2.8h3l.2-2.8a7 7 0 0 0 2.8-1.7l2.3 1 2-3.4-2-1.5c.13-.5.2-1 .2-1.6z"/>
</symbol>
<symbol id="i-lock" viewBox="0 0 24 24" fill="none" stroke="currentColor" stroke-width="1.75" stroke-linecap="round" stroke-linejoin="round">
  <rect x="5" y="11" width="14" height="9" rx="2"/><path d="M8 11V8a4 4 0 0 1 8 0v3"/><path d="M12 15v2"/>
</symbol>
<symbol id="i-calendar" viewBox="0 0 24 24" fill="none" stroke="currentColor" stroke-width="1.75" stroke-linecap="round" stroke-linejoin="round">
  <rect x="4" y="5" width="16" height="16" rx="2"/><path d="M8 3v4M16 3v4M4 10h16"/>
</symbol>
<symbol id="i-globe" viewBox="0 0 24 24" fill="none" stroke="currentColor" stroke-width="1.75" stroke-linecap="round" stroke-linejoin="round">
  <circle cx="12" cy="12" r="9"/><path d="M3 12h18M12 3a14 14 0 0 1 0 18M12 3a14 14 0 0 0 0 18"/>
</symbol>
<symbol id="i-pin" viewBox="0 0 24 24" fill="none" stroke="currentColor" stroke-width="1.75" stroke-linecap="round" stroke-linejoin="round">
  <path d="M12 21s-7-6.1-7-11a7 7 0 0 1 14 0c0 4.9-7 11-7 11z"/><circle cx="12" cy="10" r="2.5"/>
</symbol>
<symbol id="i-chevron-down" viewBox="0 0 24 24" fill="none" stroke="currentColor" stroke-width="2" stroke-linecap="round" stroke-linejoin="round">
  <path d="M6 9l6 6 6-6"/>
</symbol>
<symbol id="i-chevron-start" viewBox="0 0 24 24" fill="none" stroke="currentColor" stroke-width="2" stroke-linecap="round" stroke-linejoin="round">
  <path d="M15 6l-6 6 6 6"/>
</symbol>
<symbol id="i-chevron-end" viewBox="0 0 24 24" fill="none" stroke="currentColor" stroke-width="2" stroke-linecap="round" stroke-linejoin="round">
  <path d="M9 6l6 6-6 6"/>
</symbol>
<symbol id="i-arrow-end" viewBox="0 0 24 24" fill="none" stroke="currentColor" stroke-width="1.75" stroke-linecap="round" stroke-linejoin="round">
  <path d="M4 12h16m0 0-5-5m5 5-5 5"/>
</symbol>
<symbol id="i-phone" viewBox="0 0 24 24" fill="none" stroke="currentColor" stroke-width="1.75" stroke-linecap="round" stroke-linejoin="round">
  <path d="M5 4h4l1.5 4.5L8 10a12 12 0 0 0 6 6l1.5-2.5L20 15v4a2 2 0 0 1-2 2A16 16 0 0 1 3 6a2 2 0 0 1 2-2z"/>
</symbol>
<symbol id="i-paperclip" viewBox="0 0 24 24" fill="none" stroke="currentColor" stroke-width="1.75" stroke-linecap="round" stroke-linejoin="round">
  <path d="M20 11.5 12.5 19a5 5 0 0 1-7-7l8-8a3.4 3.4 0 0 1 4.8 4.8L10.6 16.5a1.8 1.8 0 0 1-2.6-2.6l7-7"/>
</symbol>
<symbol id="i-bank" viewBox="0 0 24 24" fill="none" stroke="currentColor" stroke-width="1.75" stroke-linecap="round" stroke-linejoin="round">
  <path d="M3 9.5 12 4l9 5.5"/><path d="M5 10v8M9.5 10v8M14.5 10v8M19 10v8"/><path d="M3 18h18M3 21h18"/>
</symbol>
<symbol id="i-mail" viewBox="0 0 24 24" fill="none" stroke="currentColor" stroke-width="1.75" stroke-linecap="round" stroke-linejoin="round">
  <rect x="3" y="5" width="18" height="14" rx="2"/><path d="m3 7 9 6 9-6"/>
</symbol>
<symbol id="i-swap" viewBox="0 0 24 24" fill="none" stroke="currentColor" stroke-width="1.75" stroke-linecap="round" stroke-linejoin="round">
  <path d="M4 8h13m0 0-3.5-3.5M17 8l-3.5 3.5"/><path d="M20 16H7m0 0 3.5-3.5M7 16l3.5 3.5"/>
</symbol>
</svg>
